<svg height="20" viewBox="0 0 20 20" width="20" xmlns="http://www.w3.org/2000/svg"><path d="m17 3h2c.5522847 0 1 .44771525 1 1s-.4477153 1-1 1h-2v2c0 .55228475-.4477153 1-1 1s-1-.44771525-1-1v-2h-2c-.5522847 0-1-.44771525-1-1s.4477153-1 1-1h2v-2c0-.55228475.4477153-1 1-1s1 .44771525 1 1zm-3.9687405 4.43466855-3.0312595 1.78507501-8.04683409-4.73869118 7.40894117-4.02019296c.39527057-.21447923.88051522-.21447923 1.27578582 0l1.3296983.72151249c-1.1482322.4208472-1.9675912 1.52355187-1.9675912 2.81762809 0 1.65685425 1.3431458 3 3 3 0 .14762259.0106625.29275482.0312595.43466855zm.3187294.97281664c.5042755.94747438 1.5018146 1.59251481 2.6500111 1.59251481 1.6568542 0 3-1.34314575 3-3v7.0567952c0 .4381214-.2472249.8426523-.6478214 1.0600214l-7.7142857 4.1858771c-.0448916.0243588-.0909438.0459511-.1378929.064777v-9.2816587zm-12.21402441-3.24716078 8.36403551 4.92548759v9.2816587c-.04694911-.0188259-.09300128-.0404182-.13789292-.064777l-7.71428572-4.1858771c-.40059642-.2173691-.64782136-.6219-.64782136-1.0600214v-8.35003729c0-.19304503.04799771-.37956859.13596449-.5464335z"/></svg>